#!OML:ASF H:\Pregnant\Project 1\Capture day 1\Session 1\femalepreg.ASF
:FULLY-SPECIFIED
:DEGREES
1610
root 5.86546 15.6871 27.0724 555.538 -80.5032 -541.084
lowerback -20.8721 0.922024 0.0340446
upperback -3.47691 0.950564 -0.10152
thorax 7.88461 0.348096 0.11299
lowerneck -17.7049 8.49255 9.5547
upperneck 21.9412 10.1964 -4.70648
head 10.7389 4.87051 -1.73976
rclavicle -9.90817e-015 6.70898e-015
rhumerus -59.544 39.1985 -98.1751
rradius 114.992
rwrist -25.2532
rhand -4.99366 -14.0041
rfingers 7.12502
rthumb 20.7995 -42.9093
lclavicle -9.90817e-015 6.70898e-015
lhumerus -62.8019 -35.4877 95.4061
lradius 114.193
lwrist 39.9929
lhand -6.88562 -10.4475
lfingers 7.12502
lthumb 18.9808 -341.354
rfemur -23.5648 23.5717 8.40126
rtibia 27.0151
rfoot -14.29 -22.8452
rtoes -14.4806
lfemur -9.7439 -10.0247 -16.4295
ltibia -3.4191e-014
lfoot -1.83874 16.566
ltoes -12.3653
1611
root 5.86372 15.687 27.0746 555.624 -80.4903 -541.152
lowerback -20.8013 0.923293 -0.000686596
upperback -3.45817 0.961943 -0.0973835
thorax 7.86657 0.353664 0.139787
lowerneck -17.6831 8.61682 9.7223
upperneck 21.7109 10.3694 -4.89274
head 10.6853 4.94458 -1.80548
rclavicle -1.35779e-014 -4.57205e-015
rhumerus -60.3723 39.3508 -98.0602
rradius 114.963
rwrist -25.6616
rhand -5.75592 -13.9116
rfingers 7.12502
rthumb 20.067 -42.8954
lclavicle -1.35779e-014 -4.57205e-015
lhumerus -63.9505 -35.7226 95.5973
lradius 114.089
lwrist 40.3749
lhand -7.85558 -10.649
lfingers 7.12502
lthumb 18.0478 -341.466
rfemur -23.5949 23.6485 8.35896
rtibia 27.0318
rfoot -14.284 -22.9238
rtoes -14.5162
lfemur -9.75811 -10.017 -16.4502
ltibia 1.43125e-014
lfoot -1.84015 16.5634
ltoes -12.3573
1612
root 5.86184 15.687 27.0765 555.702 -80.481 -541.208
lowerback -20.7373 0.924057 -0.0391084
upperback -3.44095 0.973024 -0.0910412
thorax 7.85036 0.358878 0.171033
lowerneck -17.6633 8.73524 9.86151
upperneck 21.4851 10.5343 -5.05149
head 10.6305 5.01585 -1.85804
rclavicle -1.45144e-014 8.84592e-015
rhumerus -61.2386 39.5059 -97.9756
rradius 114.92
rwrist -26.0039
rhand -6.46938 -13.8914
rfingers 7.12502
rthumb 19.3811 -42.9455
lclavicle -1.45144e-014 8.84592e-015
lhumerus -65.1482 -35.984 95.8513
lradius 113.973
lwrist 40.6738
lhand -8.93416 -10.7743
lfingers 7.12502
lthumb 17.0098 -341.499
rfemur -23.6249 23.6801 8.32641
rtibia 27.0445
rfoot -14.2827 -22.9609
rtoes -14.5395
lfemur -9.77794 -10.0116 -16.4658
ltibia 2.70347e-014
lfoot -1.83796 16.5602
ltoes -12.3629
1613
root 5.85985 15.6871 27.0781 555.736 -80.4766 -541.218
lowerback -20.6937 0.910596 -0.125829
upperback -3.41195 0.971935 -0.0334298
thorax 7.85608 0.356455 0.282438
lowerneck -17.654 8.84709 9.94006
upperneck 21.2594 10.711 -5.22921
head 10.5766 5.0851 -1.90555
rclavicle -2.93518e-015 -5.66536e-015
rhumerus -62.1248 39.7184 -97.8381
rradius 114.873
rwrist -26.2733
rhand -7.16206 -13.9653
rfingers 7.12502
rthumb 18.7149 -43.085
lclavicle -2.93518e-015 -5.66536e-015
lhumerus -66.3695 -36.2267 96.2326
lradius 113.835
lwrist 40.8907
lhand -10.1715 -10.8605
lfingers 7.12502
lthumb 15.8185 -341.487
rfemur -23.6507 23.6675 8.31126
rtibia 27.051
rfoot -14.2848 -22.9574
rtoes -14.556
lfemur -9.80033 -10.0083 -16.4711
ltibia -1.03368e-014
lfoot -1.83347 16.5565
ltoes -12.375
1614
root 5.85778 15.6873 27.0795 555.749 -80.4775 -541.205
lowerback -20.6665 0.889123 -0.244943
upperback -3.37365 0.964834 0.0570117
thorax 7.87957 0.34989 0.446567
lowerneck -17.662 8.9528 9.97582
upperneck 21.0402 10.892 -5.41838
head 10.5272 5.15128 -1.94898
rclavicle -1.43839e-014 -2.98177e-016
rhumerus -63.038 39.9696 -97.6783
rradius 114.825
rwrist -26.4721
rhand -7.87205 -14.1376
rfingers 7.12502
rthumb 18.0319 -43.3217
lclavicle -1.43839e-014 -2.98177e-016
lhumerus -67.6146 -36.4676 96.7218
lradius 113.68
lwrist 41.0563
lhand -11.5791 -10.9306
lfingers 7.12502
lthumb 14.4625 -341.455
rfemur -23.673 23.6536 8.30096
rtibia 27.0511
rfoot -14.2905 -22.9538
rtoes -14.5514
lfemur -9.8256 -10.0087 -16.4701
ltibia 4.77083e-015
lfoot -1.82718 16.5523
ltoes -12.402
1615
root 5.8556 15.6875 27.0809 555.731 -80.4838 -541.159
lowerback -20.6369 0.871072 -0.342534
upperback -3.33721 0.958407 0.135327
thorax 7.90037 0.344257 0.585423
lowerneck -17.682 9.05878 10.0216
upperneck 20.8335 11.0667 -5.59897
head 10.4848 5.21609 -1.99126
rclavicle -1.62848e-014 9.83984e-015
rhumerus -63.996 40.2251 -97.5854
rradius 114.77
rwrist -26.6206
rhand -8.65186 -14.3731
rfingers 7.12502
rthumb 17.2815 -43.6247
lclavicle -1.62848e-014 9.83984e-015
lhumerus -68.9003 -36.7343 97.2535
lradius 113.523
lwrist 41.2168
lhand -13.0979 -10.9891
lfingers 7.12502
lthumb 12.9989 -341.414
rfemur -23.6895 23.6393 8.29753
rtibia 27.0442
rfoot -14.2961 -22.9511
rtoes -14.532
lfemur -9.85163 -10.0129 -16.4626
ltibia 3.65764e-014
lfoot -1.81955 16.55
ltoes -12.4283
1616
root 5.85325 15.6877 27.0822 555.696 -80.495 -541.096
lowerback -20.6033 0.861293 -0.408659
upperback -3.30416 0.95792 0.188939
thorax 7.91634 0.342543 0.681074
lowerneck -17.7013 9.16508 10.0727
upperneck 20.6278 11.2342 -5.75882
head 10.4416 5.28057 -2.02808
rclavicle -1.48902e-014 3.08116e-015
rhumerus -65.005 40.4635 -97.5817
rradius 114.713
rwrist -26.7599
rhand -9.56454 -14.6494
rfingers 7.12502
rthumb 16.403 -43.9758
lclavicle -1.48902e-014 3.08116e-015
lhumerus -70.2238 -37.0329 97.8079
lradius 113.372
lwrist 41.3985
lhand -14.6822 -11.0567
lfingers 7.12502
lthumb 11.4713 -341.391
rfemur -23.7008 23.6285 8.29849
rtibia 27.0318
rfoot -14.2976 -22.9556
rtoes -14.5233
lfemur -9.87726 -10.0209 -16.4509
ltibia 5.00937e-014
lfoot -1.81149 16.5486
ltoes -12.4627
1617
root 5.85081 15.6879 27.0837 555.641 -80.5093 -541.013
lowerback -20.5566 0.87442 -0.40211
upperback -3.2816 0.976416 0.182794
thorax 7.91598 0.352603 0.675298
lowerneck -17.72 9.27015 10.1676
upperneck 20.4286 11.3775 -5.88207
head 10.3996 5.34174 -2.0625
rclavicle -3.0501e-015 1.16289e-014
rhumerus -66.0788 40.6451 -97.7286
rradius 114.657
rwrist -26.9213
rhand -10.4873 -14.9459
rfingers 7.12502
rthumb 15.5143 -44.3435
lclavicle -3.0501e-015 1.16289e-014
lhumerus -71.5924 -37.393 98.3388
lradius 113.233
lwrist 41.6113
lhand -16.2333 -11.1214
lfingers 7.12502
lthumb 9.97505 -341.378
rfemur -23.709 23.6234 8.30139
rtibia 27.0152
rfoot -14.3004 -22.9655
rtoes -14.5029
lfemur -9.90294 -10.0314 -16.4358
ltibia -1.82882e-014
lfoot -1.80592 16.5485
ltoes -12.4896
1618
root 5.84814 15.6882 27.085 555.571 -80.5249 -540.913
lowerback -20.5004 0.905821 -0.334731
upperback -3.26972 1.00976 0.124312
thorax 7.90079 0.372026 0.581832
lowerneck -17.7338 9.37515 10.3042
upperneck 20.235 11.5015 -5.9762
head 10.3584 5.40069 -2.09627
rclavicle 3.3079e-015 1.78906e-015
rhumerus -67.2141 40.775 -98.017
rradius 114.604
rwrist -27.1178
rhand -11.4393 -15.2723
rfingers 7.12502
rthumb 14.5973 -44.7386
lclavicle 3.3079e-015 1.78906e-015
lhumerus -73.0013 -37.7923 98.8473
lradius 113.108
lwrist 41.8434
lhand -17.667 -11.1598
lfingers 7.12502
lthumb 8.59167 -341.355
rfemur -23.716 23.6158 8.30787
rtibia 26.9961
rfoot -14.3025 -22.9725
rtoes -14.4917
lfemur -9.92834 -10.0422 -16.4171
ltibia -9.54166e-015
lfoot -1.80345 16.55
ltoes -12.5045
1619
root 5.84538 15.6885 27.0861 555.493 -80.5393 -540.803
lowerback -20.4555 0.935349 -0.285318
upperback -3.25353 1.04341 0.0807149
thorax 7.89587 0.390892 0.515024
lowerneck -17.7503 9.47425 10.4205
upperneck 20.0416 11.6245 -6.07915
head 10.3172 5.45644 -2.13003
rclavicle 1.27238e-014 8.15017e-015
rhumerus -68.3858 40.9108 -98.3289
rradius 114.563
rwrist -27.3519
rhand -12.4068 -15.6197
rfingers 7.12502
rthumb 13.665 -45.1511
lclavicle 1.27238e-014 8.15017e-015
lhumerus -74.4086 -38.1666 99.404
lradius 112.986
lwrist 42.0624
lhand -18.9688 -11.1362
lfingers 7.12502
lthumb 7.33527 -341.283
rfemur -23.7244 23.6152 8.31506
rtibia 26.9761
rfoot -14.3044 -22.9834
rtoes -14.4757
lfemur -9.95302 -10.0509 -16.3955
ltibia 7.95139e-016
lfoot -1.80643 16.5505
ltoes -12.5112
1620
root 5.8425 15.6888 27.0869 555.417 -80.5513 -540.696
lowerback -20.4271 0.955658 -0.272232
upperback -3.22988 1.07061 0.0655985
thorax 7.90678 0.4053 0.49836
lowerneck -17.7731 9.56905 10.5279
upperneck 19.8518 11.751 -6.21398
head 10.2807 5.50917 -2.1727
rclavicle -1.59742e-014 2.98177e-016
rhumerus -69.5839 41.0703 -98.6386
rradius 114.535
rwrist -27.6016
rhand -13.3593 -15.9802
rfingers 7.12502
rthumb 12.7469 -45.5711
lclavicle -1.59742e-014 2.98177e-016
lhumerus -75.7976 -38.4914 100.01
lradius 112.86
lwrist 42.2376
lhand -20.1352 -11.0111
lfingers 7.12502
lthumb 6.20925 -341.122
rfemur -23.7347 23.6188 8.321
rtibia 26.9569
rfoot -14.3081 -22.9945
rtoes -14.4535
lfemur -9.97745 -10.0572 -16.3737
ltibia -4.45278e-014
lfoot -1.81228 16.5502
ltoes -12.5114
1621
root 5.83955 15.689 27.0873 555.351 -80.5609 -540.599
lowerback -20.4235 0.949158 -0.350609
upperback -3.18987 1.07628 0.127968
thorax 7.94563 0.405901 0.612574
lowerneck -17.8033 9.65808 10.5785
upperneck 19.6616 11.8982 -6.40469
head 10.2476 5.56042 -2.22254
rclavicle 2.59818e-015 -1.02374e-014
rhumerus -70.7937 41.3048 -98.8601
rradius 114.529
rwrist -27.856
rhand -14.3293 -16.3434
rfingers 7.12502
rthumb 11.8115 -45.9903
lclavicle 2.59818e-015 -1.02374e-014
lhumerus -77.1454 -38.7158 100.723
lradius 112.722
lwrist 42.3435
lhand -21.2337 -10.736
lfingers 7.12502
lthumb 5.14873 -340.819
rfemur -23.7442 23.6136 8.32887
rtibia 26.9401
rfoot -14.307 -22.9992
rtoes -14.4551
lfemur -9.99834 -10.0616 -16.3537
ltibia 3.02153e-014
lfoot -1.82349 16.5505
ltoes -12.49
1622
root 5.8365 15.6891 27.0875 555.3 -80.5696 -540.521
lowerback -20.4426 0.914968 -0.51039
upperback -3.13327 1.05787 0.258849
thorax 8.01218 0.391655 0.841622
lowerneck -17.8404 9.74659 10.5835
upperneck 19.4703 12.0688 -6.64642
head 10.2185 5.61299 -2.279
rclavicle 2.3792e-015 7.45443e-015
rhumerus -72.0125 41.6062 -99.0084
rradius 114.54
rwrist -28.0742
rhand -15.2799 -16.7013
rfingers 7.12502
rthumb 10.8948 -46.3986
lclavicle 2.3792e-015 7.45443e-015
lhumerus -78.4535 -38.8449 101.524
lradius 112.576
lwrist 42.3748
lhand -22.3141 -10.2753
lfingers 7.12502
lthumb 4.10544 -340.335
rfemur -23.7517 23.5917 8.33844
rtibia 26.9271
rfoot -14.31 -22.9867
rtoes -14.468
lfemur -10.0156 -10.0662 -16.3375
ltibia 7.95139e-015
lfoot -1.83365 16.5512
ltoes -12.487
1623
root 5.83338 15.6891 27.0875 555.26 -80.5779 -540.46
lowerback -20.4394 0.895388 -0.606401
upperback -3.09004 1.04964 0.328454
thorax 8.05457 0.384744 0.970188
lowerneck -17.8828 9.8395 10.6679
upperneck 19.2996 12.2175 -6.86721
head 10.2005 5.66353 -2.34325
rclavicle -2.86297e-014 3.18055e-015
rhumerus -73.2683 41.8297 -99.2885
rradius 114.546
rwrist -28.2093
rhand -16.1463 -17.0405
rfingers 7.12502
rthumb 10.059 -46.7801
lclavicle -2.86297e-014 3.18055e-015
lhumerus -79.8108 -39.0002 102.285
lradius 112.447
lwrist 42.3528
lhand -23.4148 -9.6091
lfingers 7.12502
lthumb 3.04256 -339.651
rfemur -23.7559 23.5681 8.34826
rtibia 26.9187
rfoot -14.3144 -22.9728
rtoes -14.4828
lfemur -10.0273 -10.0712 -16.3245
ltibia 4.69132e-014
lfoot -1.8475 16.5526
ltoes -12.4602
1624
root 5.83018 15.6889 27.0874 555.243 -80.5874 -540.426
lowerback -20.4113 0.894344 -0.62852
upperback -3.0624 1.05528 0.32791
thorax 8.06917 0.387565 0.983679
lowerneck -17.9131 9.93552 10.8155
upperneck 19.1369 12.3442 -7.04973
head 10.1832 5.71324 -2.40758
rclavicle 1.48452e-014 -8.94531e-016
rhumerus -74.5605 41.9564 -99.7066
rradius 114.544
rwrist -28.2537
rhand -16.9436 -17.3887
rfingers 7.12502
rthumb 9.28974 -47.164
lclavicle 1.48452e-014 -8.94531e-016
lhumerus -81.2299 -39.1934 103.007
lradius 112.337
lwrist 42.2981
lhand -24.5472 -8.7281
lfingers 7.12502
lthumb 1.94884 -338.757
rfemur -23.7558 23.5304 8.35912
rtibia 26.9148
rfoot -14.3188 -22.9498
rtoes -14.5134
lfemur -10.0342 -10.0791 -16.3168
ltibia 1.19271e-014
lfoot -1.85821 16.5556
ltoes -12.4431
